<svg fill="#fff" height="512pt" viewBox="-60 0 512 512.00247" width="512pt" xmlns="http://www.w3.org/2000/svg"><path d="m349.867188 469.335938c23.554687-.027344 42.640624-19.113282 42.667968-42.667969v-230.398438c0-53.292969-21.671875-104.296875-60.035156-141.289062-38.367188-36.992188-90.125-56.792969-143.382812-54.851563-104.277344 3.714844-189.117188 93.738282-189.117188 200.636719v242.96875c0 23.566406 19.105469 42.667969 42.667969 42.667969s42.667969-19.101563 42.667969-42.667969v-64c-.011719-3.765625 1.640624-7.347656 4.515624-9.785156 2.871094-2.441407 6.671876-3.488281 10.390626-2.867188l.453124.101563c5.984376 1.183594 10.28125 6.453125 10.238282 12.550781v25.601563c0 21.207031 17.191406 38.398437 38.402344 38.398437 21.207031 0 38.398437-17.191406 38.398437-38.398437-.042969-6.785157 5.242187-12.414063 12.015625-12.800782 3.316406-.125 6.542969 1.109375 8.933594 3.414063 2.960937 2.792969 4.644531 6.679687 4.652344 10.75v71.167969c0 18.851562 15.28125 34.136718 34.132812 34.136718.851562 0 1.636719 0 2.464844-.085937 18.195312-1.761719 31.984375-17.210938 31.667968-35.492188v-105.222656c-.015624-.773437.054688-1.546875.214844-2.304687.445313-2.5625 1.671875-4.925782 3.515625-6.765626 3.640625-3.542968 9.003907-4.652343 13.753907-2.851562 4.898437 1.925781 8.117187 6.65625 8.117187 11.921875v55.464844c.027344 23.554687 19.113281 42.640625 42.664063 42.667969zm-44.585938-125.960938c-11.066406-4.195312-23.558594-1.582031-32.015625 6.691406-4.273437 4.222656-7.136719 9.667969-8.195313 15.582032-.375 1.824218-.554687 3.6875-.535156 5.554687v105.222656c.253906 9.308594-6.570312 17.300781-15.804687 18.511719-4.949219.335938-9.800781-1.472656-13.320313-4.96875-3.226562-3.195312-5.03125-7.558594-5.007812-12.101562v-71.167969c-.019532-8.761719-3.640625-17.132813-10.011719-23.148438-5.363281-5.160156-12.507813-8.054687-19.949219-8.082031-.570312 0-1.136718.015625-1.707031.050781-15.785156.914063-28.105469 14.003907-28.066406 29.816407 0 11.78125-9.550781 21.332031-21.332031 21.332031-11.785157 0-21.335938-9.550781-21.335938-21.332031v-25.601563c.035156-14.15625-9.898438-26.378906-23.765625-29.242187-.160156-.042969-.324219-.085938-.484375-.109376-9.730469-1.824218-19.730469 1.246094-26.761719 8.214844-5.609375 5.601563-8.75 13.210938-8.71875 21.136719v64c-.046875 10.8125-6.875 20.429687-17.066406 24.03125v-41.097656c0-4.710938-3.824219-8.53125-8.535156-8.53125-4.714844 0-8.535157 3.820312-8.535157 8.53125v41.097656c-10.191406-3.601563-17.019531-13.21875-17.066406-24.03125v-242.96875c0-97.835937 77.449219-180.1875 172.65625-183.578125 48.628906-1.777344 95.890625 16.300781 130.921875 50.074219 35.035157 33.777343 54.824219 80.34375 54.824219 129.007812v230.398438c-.046875 10.8125-6.875 20.429687-17.066406 24.03125v-49.628907c0-4.714843-3.820313-8.535156-8.535156-8.535156-4.710938 0-8.53125 3.820313-8.53125 8.535156v49.628907c-10.191407-3.601563-17.023438-13.21875-17.066407-24.03125v-55.464844c-.03125-12.289063-7.554687-23.316406-18.988281-27.828125zm0 0"/><path d="m256 85.335938c-24.851562.015624-47.730469 13.535156-59.730469 35.292968-15.046875-27.269531-46.640625-40.902344-76.800781-33.136718-30.164062 7.765624-51.242188 34.964843-51.242188 66.109374 0 31.148438 21.078126 58.34375 51.242188 66.109376 30.160156 7.769531 61.753906-5.863282 76.800781-33.136719 16.082031 29.160156 50.863281 42.460937 82.300781 31.472656s50.355469-43.058594 44.773438-75.890625c-5.582031-32.828125-34.039062-56.839844-67.34375-56.820312zm-119.464844 119.464843c-28.277344 0-51.199218-22.921875-51.199218-51.199219 0-28.277343 22.921874-51.199218 51.199218-51.199218s51.199219 22.921875 51.199219 51.199218c-.027344 28.265626-22.933594 51.171876-51.199219 51.199219zm119.464844 0c-28.277344 0-51.199219-22.921875-51.199219-51.199219 0-28.277343 22.921875-51.199218 51.199219-51.199218s51.203125 22.921875 51.203125 51.199218c-.03125 28.265626-22.9375 51.171876-51.203125 51.199219zm0 0"/><path d="m136.535156 128.003906c-14.140625 0-25.601562 11.460938-25.601562 25.597656 0 14.140626 11.460937 25.601563 25.601562 25.601563 14.136719 0 25.597656-11.460937 25.597656-25.601563 0-14.136718-11.460937-25.597656-25.597656-25.597656zm0 34.132813c-4.714844 0-8.535156-3.820313-8.535156-8.535157 0-4.710937 3.820312-8.53125 8.535156-8.53125 4.710938 0 8.53125 3.820313 8.53125 8.53125 0 4.714844-3.820312 8.535157-8.53125 8.535157zm0 0"/><path d="m256 128.003906c-14.136719 0-25.597656 11.460938-25.597656 25.597656 0 14.140626 11.460937 25.601563 25.597656 25.601563 14.140625 0 25.601562-11.460937 25.601562-25.601563 0-14.136718-11.460937-25.597656-25.601562-25.597656zm0 34.132813c-4.710938 0-8.53125-3.820313-8.53125-8.535157 0-4.710937 3.820312-8.53125 8.53125-8.53125 4.714844 0 8.535156 3.820313 8.535156 8.53125 0 4.714844-3.820312 8.535157-8.535156 8.535157zm0 0"/><path d="m216.261719 225.375c-9.65625-3.476562-20.046875-4.378906-30.15625-2.617188-3.308594.558594-6.558594 1.414063-9.710938 2.558594h-.121093l-.101563.050782c-27.363281 9.792968-43.710937 37.859374-38.722656 66.492187s29.859375 49.519531 58.925781 49.484375c29.0625-.039062 53.882812-20.988281 58.796875-49.632812 4.914063-28.648438-11.503906-56.671876-38.894531-66.394532zm-28.527344 14.535156c.203125 0 .402344-.128906.597656-.164062 5.238281-1 10.617188-1 15.855469 0 .203125 0 .410156.121094.613281.164062v7.558594c0 4.714844-3.820312 8.535156-8.53125 8.535156-4.714843 0-8.535156-3.820312-8.535156-8.535156zm8.535156 84.359375c-18.367187 0-34.671875-11.753906-40.480469-29.175781-5.804687-17.421875.1875-36.605469 14.878907-47.625 0 14.140625 11.460937 25.601562 25.601562 25.601562 14.136719 0 25.597657-11.460937 25.597657-25.601562 14.691406 11.019531 20.683593 30.203125 14.878906 47.625-5.808594 17.421875-22.113282 29.175781-40.476563 29.175781zm0 0"/><path d="m42.667969 230.402344c-4.714844 0-8.535157 3.820312-8.535157 8.535156v119.464844c0 4.714844 3.820313 8.535156 8.535157 8.535156 4.710937 0 8.535156-3.820312 8.535156-8.535156v-119.464844c0-4.714844-3.824219-8.535156-8.535156-8.535156zm0 0"/><path d="m349.867188 349.867188c4.714843 0 8.535156-3.820313 8.535156-8.53125v-68.265626c0-4.714843-3.820313-8.535156-8.535156-8.535156-4.710938 0-8.53125 3.820313-8.53125 8.535156v68.265626c0 4.710937 3.820312 8.53125 8.53125 8.53125zm0 0"/></svg>